<?xml version="1.0" encoding="UTF-8" standalone="no"?>
<!-- Created with Inkscape (http://www.inkscape.org/) -->

<svg
   xmlns:ns0="http://www.iki.fi/pav/software/textext/"
   xmlns:dc="http://purl.org/dc/elements/1.1/"
   xmlns:cc="http://creativecommons.org/ns#"
   xmlns:rdf="http://www.w3.org/1999/02/22-rdf-syntax-ns#"
   xmlns:svg="http://www.w3.org/2000/svg"
   xmlns="http://www.w3.org/2000/svg"
   xmlns:sodipodi="http://sodipodi.sourceforge.net/DTD/sodipodi-0.dtd"
   xmlns:inkscape="http://www.inkscape.org/namespaces/inkscape"
   width="563.38342"
   height="93.217934"
   id="svg10696"
   version="1.1"
   inkscape:version="0.48.4 r9939"
   sodipodi:docname="New document 2">
  <defs
     id="defs10698">
    <marker
       inkscape:stockid="Arrow2Sstart"
       orient="auto"
       refY="0"
       refX="0"
       id="Arrow2Sstart"
       style="overflow:visible">
      <path
         inkscape:connector-curvature="0"
         id="path35182"
         style="fill-rule:evenodd;stroke-width:0.625;stroke-linejoin:round"
         d="M 8.7185878,4.0337352 -2.2072895,0.01601326 8.7185884,-4.0017078 c -1.7454984,2.3720609 -1.7354408,5.6174519 -6e-7,8.035443 z"
         transform="matrix(0.3,0,0,0.3,-0.69,0)" />
    </marker>
    <marker
       style="overflow:visible"
       id="Arrow1Mend"
       refX="0"
       refY="0"
       orient="auto"
       inkscape:stockid="Arrow1Mend">
      <path
         inkscape:connector-curvature="0"
         transform="matrix(-0.4,0,0,-0.4,-4,0)"
         style="fill-rule:evenodd;stroke:#000000;stroke-width:1pt"
         d="M 0,0 5,-5 -12.5,0 5,5 0,0 z"
         id="path8637" />
    </marker>
  </defs>
  <sodipodi:namedview
     id="base"
     pagecolor="#ffffff"
     bordercolor="#666666"
     borderopacity="1.0"
     inkscape:pageopacity="0.0"
     inkscape:pageshadow="2"
     inkscape:zoom="0.7"
     inkscape:cx="464.46429"
     inkscape:cy="-95.446822"
     inkscape:document-units="px"
     inkscape:current-layer="layer1"
     showgrid="true"
     showborder="false"
     fit-margin-top="0"
     fit-margin-left="0"
     fit-margin-right="0"
     fit-margin-bottom="0"
     inkscape:window-width="1855"
     inkscape:window-height="1056"
     inkscape:window-x="65"
     inkscape:window-y="24"
     inkscape:window-maximized="1">
    <inkscape:grid
       type="xygrid"
       id="grid10704"
       empspacing="5"
       visible="true"
       enabled="true"
       snapvisiblegridlinesonly="true"
       originx="253.75px"
       originy="-792.58968px" />
  </sodipodi:namedview>
  <metadata
     id="metadata10701">
    <rdf:RDF>
      <cc:Work
         rdf:about="">
        <dc:format>image/svg+xml</dc:format>
        <dc:type
           rdf:resource="http://purl.org/dc/dcmitype/StillImage" />
        <dc:title></dc:title>
      </cc:Work>
    </rdf:RDF>
  </metadata>
  <g
     inkscape:label="Layer 1"
     inkscape:groupmode="layer"
     id="layer1"
     transform="translate(253.75,-166.55457)">
    <path
       sodipodi:nodetypes="cssc"
       inkscape:connector-curvature="0"
       id="path476484"
       d="m -253.279,231.55084 c 0,0 53.6773,21.9783 81.9616,21.9614 103.4945,-0.062 196.3131,-80.656 299.8076,-80.7179 47.1404,-0.028 136.6026,36.6025 136.6026,36.6025"
       style="fill:none;stroke:#000000;stroke-width:2.5;stroke-linecap:butt;stroke-linejoin:miter;stroke-miterlimit:4;stroke-opacity:1;stroke-dasharray:none;marker-start:none;marker-mid:url(#Arrow1Mend)" />
    <g
       style="font-style:normal;font-variant:normal;font-weight:normal;font-stretch:normal;letter-spacing:normal;word-spacing:normal;text-anchor:start;fill:none;stroke:#000000;stroke-linecap:butt;stroke-linejoin:miter;stroke-miterlimit:10.43299961;stroke-opacity:1;stroke-dasharray:none;stroke-dashoffset:0"
       ns0:preamble="/home/mc/data/mc/PhD/prelim/latex_header.tex"
       ns0:text="$\\mathbf{B}$\n"
       word-spacing="normal"
       letter-spacing="normal"
       font-size-adjust="none"
       font-stretch="normal"
       font-weight="normal"
       font-variant="normal"
       font-style="normal"
       stroke-miterlimit="10.433"
       xml:space="preserve"
       transform="matrix(4.3224315,0,0,-4.3224315,-688.7132,2290.6496)"
       id="g476486"><path
         id="path476488"
         d="m 228.88,480.79 0.1,0.02 0.1,0.02 0.09,0.02 0.1,0.03 0.09,0.03 0.08,0.03 0.09,0.03 0.08,0.04 0.07,0.03 0.08,0.04 0.07,0.04 0.07,0.04 0.07,0.05 0.06,0.04 0.06,0.05 0.06,0.05 0.05,0.05 0.05,0.05 0.05,0.06 0.04,0.05 0.04,0.06 0.04,0.06 0.04,0.06 0.03,0.06 0.02,0.07 0.03,0.06 0.02,0.07 0.02,0.06 0.01,0.07 0.01,0.07 0,0.07 0,0.07 c 0,0.92 -0.86,1.71 -2.46,1.71 l -0.13,-0.47 c 1,0 1.18,-0.78 1.18,-1.24 0,-0.76 -0.48,-1.38 -1.44,-1.38 h -1.55 v -0.36 h 1.93 c 0.2,0 0.66,0 1,-0.43 0.33,-0.41 0.33,-0.97 0.33,-1.08 0,-0.12 0,-1.39 -1.43,-1.39 h 0 -1.83 v 2.9 0.36 2.62 h 1.81 l 0.13,0.47 h -4.32 v -0.47 h 1.08 v -5.88 h -1.08 v -0.47 h 4.62 c 1.65,0 2.48,0.88 2.48,1.85 0,0.96 -0.85,1.62 -2.04,1.71 z"
         inkscape:connector-curvature="0"
         style="fill:#000000;stroke-width:0" /></g>    <path
       transform="matrix(0.96592583,-0.25881905,0.25881905,0.96592583,-4466.0832,-7940.3351)"
       sodipodi:open="true"
       sodipodi:end="7.3303829"
       sodipodi:start="1.0493954"
       d="m 2167.4905,9045.3424 c -2.3945,5.5019 -5.4507,2.1975 -6.8261,-7.3805 -1.3755,-9.578 -0.5494,-21.8025 1.8451,-27.3043 2.3945,-5.5019 5.4507,-2.1975 6.8261,7.3805 1.3733,9.5631 0.5521,21.7681 -1.8356,27.2824"
       sodipodi:ry="20"
       sodipodi:rx="5"
       sodipodi:cy="9028"
       sodipodi:cx="2165"
       id="path476490"
       style="fill:none;stroke:#000000;stroke-width:2.5;stroke-miterlimit:4;stroke-opacity:1;stroke-dasharray:none;marker-start:none;marker-mid:url(#Arrow2Sstart);marker-end:none"
       sodipodi:type="arc" />
  </g>
</svg>
