<?xml version="1.0" encoding="UTF-8" standalone="no"?>
<!-- Created with Inkscape (http://www.inkscape.org/) -->

<svg
   xmlns:ns0="http://www.iki.fi/pav/software/textext/"
   xmlns:dc="http://purl.org/dc/elements/1.1/"
   xmlns:cc="http://creativecommons.org/ns#"
   xmlns:rdf="http://www.w3.org/1999/02/22-rdf-syntax-ns#"
   xmlns:svg="http://www.w3.org/2000/svg"
   xmlns="http://www.w3.org/2000/svg"
   xmlns:xlink="http://www.w3.org/1999/xlink"
   xmlns:sodipodi="http://sodipodi.sourceforge.net/DTD/sodipodi-0.dtd"
   xmlns:inkscape="http://www.inkscape.org/namespaces/inkscape"
   width="955.99652"
   height="606"
   id="svg31359"
   version="1.1"
   inkscape:version="0.48.4 r9939"
   sodipodi:docname="riemann_problem.svg">
  <sodipodi:namedview
     id="base"
     pagecolor="#ffffff"
     bordercolor="#666666"
     borderopacity="1.0"
     inkscape:pageopacity="0.0"
     inkscape:pageshadow="2"
     inkscape:zoom="0.98994949"
     inkscape:cx="647.65125"
     inkscape:cy="160.36996"
     inkscape:document-units="px"
     inkscape:current-layer="layer1"
     showgrid="true"
     showborder="false"
     inkscape:window-width="1615"
     inkscape:window-height="1026"
     inkscape:window-x="65"
     inkscape:window-y="24"
     inkscape:window-maximized="1"
     fit-margin-top="0"
     fit-margin-left="0"
     fit-margin-right="0"
     fit-margin-bottom="0">
    <inkscape:grid
       snapvisiblegridlinesonly="true"
       enabled="true"
       visible="true"
       empspacing="5"
       id="grid31367"
       type="xygrid"
       originx="518.36554px"
       originy="-479.98718px" />
  </sodipodi:namedview>
  <defs
     id="defs31361" />
  <metadata
     id="metadata31364">
    <rdf:RDF>
      <cc:Work
         rdf:about="">
        <dc:format>image/svg+xml</dc:format>
        <dc:type
           rdf:resource="http://purl.org/dc/dcmitype/StillImage" />
        <dc:title></dc:title>
      </cc:Work>
    </rdf:RDF>
  </metadata>
  <g
     id="layer1"
     inkscape:groupmode="layer"
     inkscape:label="Layer 1"
     transform="translate(518.36554,33.625)">
    <path
       style="fill:none;stroke:#000000;stroke-width:10;stroke-linecap:butt;stroke-linejoin:miter;stroke-miterlimit:4;stroke-opacity:1;stroke-dasharray:none"
       d="m -363.00377,-30.921517 0,599.999997 0,0"
       id="path40877"
       inkscape:connector-curvature="0" />
    <path
       inkscape:connector-curvature="0"
       id="path40881"
       d="m 234.71053,-28.635817 -600,0 0,0"
       style="fill:none;stroke:#000000;stroke-width:10;stroke-linecap:butt;stroke-linejoin:miter;stroke-miterlimit:4;stroke-opacity:1;stroke-dasharray:none" />
    <path
       style="fill:none;stroke:#000000;stroke-width:10;stroke-linecap:butt;stroke-linejoin:miter;stroke-miterlimit:4;stroke-opacity:1;stroke-dasharray:none"
       d="m 234.71053,567.36418 -600,0 0,0"
       id="path40883"
       inkscape:connector-curvature="0" />
    <path
       inkscape:connector-curvature="0"
       id="path40885"
       d="m 232.99623,-30.921517 0,599.999997 0,0"
       style="fill:none;stroke:#000000;stroke-width:10;stroke-linecap:butt;stroke-linejoin:miter;stroke-miterlimit:4;stroke-opacity:1;stroke-dasharray:none" />
    <path
       sodipodi:type="arc"
       style="stroke-width:5;stroke-linecap:butt;stroke-linejoin:miter;stroke-miterlimit:4;stroke-dasharray:none"
       id="path40887"
       sodipodi:cx="160"
       sodipodi:cy="372.36218"
       sodipodi:rx="20"
       sodipodi:ry="20"
       d="m 180,372.36218 c 0,11.0457 -8.95431,20 -20,20 -11.04569,0 -20,-8.9543 -20,-20 0,-11.04569 8.95431,-20 20,-20 11.04569,0 20,8.95431 20,20 z"
       transform="translate(-221.00372,-111.28372)" />
    <path
       style="fill:none;stroke:#0000ff;stroke-width:10;stroke-linecap:butt;stroke-linejoin:miter;stroke-miterlimit:4;stroke-opacity:1;stroke-dasharray:none"
       d="m 216.96873,209.28688 0,100"
       id="path40915"
       inkscape:connector-curvature="0" />
    <path
       inkscape:connector-curvature="0"
       id="path40923"
       d="m -346.85267,204.17978 0,100"
       style="fill:none;stroke:#ff0000;stroke-width:10;stroke-linecap:butt;stroke-linejoin:miter;stroke-miterlimit:4;stroke-opacity:1;stroke-dasharray:none" />
    <path
       style="fill:none;stroke:#0000ff;stroke-width:10;stroke-linecap:butt;stroke-linejoin:miter;stroke-miterlimit:4;stroke-opacity:1;stroke-dasharray:none"
       d="m -378.85267,204.17978 0,100"
       id="path40925"
       inkscape:connector-curvature="0" />
    <path
       inkscape:connector-curvature="0"
       id="path40927"
       d="m 248.96873,209.28688 0,100"
       style="fill:none;stroke:#ff0000;stroke-width:10;stroke-linecap:butt;stroke-linejoin:miter;stroke-miterlimit:4;stroke-opacity:1;stroke-dasharray:none" />
    <use
       height="1052.3622"
       width="744.09448"
       id="use15100"
       y="134.765"
       x="223.43201"
       xlink:href="#textext-f05da355-1"
       style="fill:#000000;fill-opacity:1"
       transform="matrix(9.7265712,0,0,9.7265712,-2256.3889,-937.45134)" />
    <use
       height="1052.3622"
       width="744.09448"
       id="use15104"
       y="134.765"
       x="229.078"
       xlink:href="#textext-f05da355-3"
       style="fill:#000000;fill-opacity:1"
       transform="matrix(9.7265712,0,0,9.7265712,-2256.3889,-937.45134)" />
    <use
       height="1052.3622"
       width="744.09448"
       id="use15108"
       y="130.842"
       x="240.23599"
       xlink:href="#textext-f05da355-5"
       style="fill:#000000;fill-opacity:1"
       transform="matrix(9.7265712,0,0,9.7265712,-2256.3889,-937.45134)" />
    <use
       height="1052.3622"
       width="744.09448"
       id="use15114"
       y="138.2"
       x="240.23599"
       xlink:href="#textext-f05da355-6"
       style="fill:#000000;fill-opacity:1"
       transform="matrix(9.7265712,0,0,9.7265712,-2256.3889,-937.45134)" />
    <rect
       style="opacity:0.5;fill:none;stroke:#0000ff;stroke-width:4.46653509;stroke-linecap:butt;stroke-linejoin:miter;stroke-miterlimit:4;stroke-opacity:1;stroke-dasharray:none;stroke-dashoffset:0"
       id="rect15224"
       width="53.462395"
       height="125.38117"
       x="-388.41333"
       y="191.8828" />
    <rect
       y="191.8828"
       x="207.58667"
       height="125.38117"
       width="53.462395"
       id="rect15226"
       style="opacity:0.5;fill:none;stroke:#0000ff;stroke-width:4.46653509;stroke-linecap:butt;stroke-linejoin:miter;stroke-miterlimit:4;stroke-opacity:1;stroke-dasharray:none;stroke-dashoffset:0" />
    <g
       id="g31495"
       ns0:preamble=""
       ns0:text="$i+\\frac{1}{2}$"
       transform="matrix(9.7304048,0,0,9.7304048,-2257.4502,-895.9113)">
      <defs
         id="defs31497">
        <g
           id="g31499">
          <symbol
             id="textext-f9a59e65-0"
             overflow="visible"
             style="overflow:visible">
            <path
               id="path31502"
               d=""
               style="stroke:none"
               inkscape:connector-curvature="0" />
          </symbol>
          <symbol
             id="textext-f9a59e65-1"
             overflow="visible"
             style="overflow:visible">
            <path
               id="path31505"
               d="m 2.828125,-6.234375 c 0,-0.203125 -0.140625,-0.359375 -0.359375,-0.359375 -0.28125,0 -0.546875,0.265625 -0.546875,0.53125 0,0.1875 0.140625,0.359375 0.375,0.359375 0.234375,0 0.53125,-0.234375 0.53125,-0.53125 z m -0.75,3.75 c 0.109375,-0.28125 0.109375,-0.3125 0.21875,-0.578125 0.078125,-0.203125 0.125,-0.34375 0.125,-0.53125 0,-0.4375 -0.3125,-0.8125 -0.8125,-0.8125 -0.9375,0 -1.3125,1.453125 -1.3125,1.53125 0,0.109375 0.09375,0.109375 0.109375,0.109375 0.109375,0 0.109375,-0.03125 0.15625,-0.1875 0.28125,-0.9375 0.671875,-1.234375 1.015625,-1.234375 0.078125,0 0.25,0 0.25,0.3125 0,0.21875 -0.078125,0.421875 -0.109375,0.53125 -0.078125,0.25 -0.53125,1.40625 -0.6875,1.84375 -0.109375,0.25 -0.234375,0.578125 -0.234375,0.796875 0,0.46875 0.34375,0.8125 0.8125,0.8125 0.9375,0 1.3125,-1.4375 1.3125,-1.53125 0,-0.109375 -0.09375,-0.109375 -0.125,-0.109375 -0.09375,0 -0.09375,0.03125 -0.140625,0.1875 -0.1875,0.625 -0.515625,1.234375 -1.015625,1.234375 -0.171875,0 -0.25,-0.09375 -0.25,-0.328125 0,-0.25 0.0625,-0.390625 0.296875,-1 z m 0,0"
               style="stroke:none"
               inkscape:connector-curvature="0" />
          </symbol>
          <symbol
             id="textext-f9a59e65-2"
             overflow="visible"
             style="overflow:visible">
            <path
               id="path31508"
               d=""
               style="stroke:none"
               inkscape:connector-curvature="0" />
          </symbol>
          <symbol
             id="textext-f9a59e65-3"
             overflow="visible"
             style="overflow:visible">
            <path
               id="path31511"
               d="m 4.078125,-2.296875 2.78125,0 C 7,-2.296875 7.1875,-2.296875 7.1875,-2.5 7.1875,-2.6875 7,-2.6875 6.859375,-2.6875 l -2.78125,0 0,-2.796875 c 0,-0.140625 0,-0.328125 -0.203125,-0.328125 -0.203125,0 -0.203125,0.1875 -0.203125,0.328125 l 0,2.796875 -2.78125,0 c -0.140625,0 -0.328125,0 -0.328125,0.1875 0,0.203125 0.1875,0.203125 0.328125,0.203125 l 2.78125,0 0,2.796875 c 0,0.140625 0,0.328125 0.203125,0.328125 0.203125,0 0.203125,-0.1875 0.203125,-0.328125 z m 0,0"
               style="stroke:none"
               inkscape:connector-curvature="0" />
          </symbol>
          <symbol
             id="textext-f9a59e65-4"
             overflow="visible"
             style="overflow:visible">
            <path
               id="path31514"
               d=""
               style="stroke:none"
               inkscape:connector-curvature="0" />
          </symbol>
          <symbol
             id="textext-f9a59e65-5"
             overflow="visible"
             style="overflow:visible">
            <path
               id="path31517"
               d="m 2.328125,-4.4375 c 0,-0.1875 0,-0.1875 -0.203125,-0.1875 -0.453125,0.4375 -1.078125,0.4375 -1.359375,0.4375 l 0,0.25 c 0.15625,0 0.625,0 1,-0.1875 l 0,3.546875 c 0,0.234375 0,0.328125 -0.6875,0.328125 l -0.265625,0 0,0.25 c 0.125,0 0.984375,-0.03125 1.234375,-0.03125 0.21875,0 1.09375,0.03125 1.25,0.03125 l 0,-0.25 -0.265625,0 c -0.703125,0 -0.703125,-0.09375 -0.703125,-0.328125 z m 0,0"
               style="stroke:none"
               inkscape:connector-curvature="0" />
          </symbol>
          <symbol
             id="textext-f9a59e65-6"
             overflow="visible"
             style="overflow:visible">
            <path
               id="path31520"
               d="m 3.515625,-1.265625 -0.234375,0 c -0.015625,0.15625 -0.09375,0.5625 -0.1875,0.625 -0.046875,0.046875 -0.578125,0.046875 -0.6875,0.046875 l -1.28125,0 c 0.734375,-0.640625 0.984375,-0.84375 1.390625,-1.171875 0.515625,-0.40625 1,-0.84375 1,-1.5 0,-0.84375 -0.734375,-1.359375 -1.625,-1.359375 -0.859375,0 -1.453125,0.609375 -1.453125,1.25 0,0.34375 0.296875,0.390625 0.375,0.390625 0.15625,0 0.359375,-0.125 0.359375,-0.375 0,-0.125 -0.046875,-0.375 -0.40625,-0.375 C 0.984375,-4.21875 1.453125,-4.375 1.78125,-4.375 c 0.703125,0 1.0625,0.546875 1.0625,1.109375 0,0.609375 -0.4375,1.078125 -0.65625,1.328125 L 0.515625,-0.265625 C 0.4375,-0.203125 0.4375,-0.1875 0.4375,0 l 2.875,0 z m 0,0"
               style="stroke:none"
               inkscape:connector-curvature="0" />
          </symbol>
        </g>
      </defs>
      <g
         id="textext-f9a59e65-7">
        <g
           id="g31523"
           style="fill:#000000;fill-opacity:1">
          <use
             id="use31525"
             y="134.765"
             x="223.43201"
             xlink:href="#textext-f9a59e65-1"
             width="744.09448"
             height="1052.3622" />
        </g>
        <g
           id="g31527"
           style="fill:#000000;fill-opacity:1">
          <use
             id="use31529"
             y="134.765"
             x="229.078"
             xlink:href="#textext-f9a59e65-3"
             width="744.09448"
             height="1052.3622" />
        </g>
        <g
           id="g31531"
           style="fill:#000000;fill-opacity:1">
          <use
             id="use31533"
             y="130.842"
             x="240.23599"
             xlink:href="#textext-f9a59e65-5"
             width="744.09448"
             height="1052.3622" />
        </g>
        <path
           id="path31535"
           transform="matrix(1,0,0,-1,240.236,132.274)"
           d="m -0.001625,5.625e-4 3.972656,0"
           style="fill:none;stroke:#000000;stroke-width:0.398;stroke-linecap:butt;stroke-linejoin:miter;stroke-miterlimit:10;stroke-opacity:1"
           inkscape:connector-curvature="0" />
        <g
           id="g31537"
           style="fill:#000000;fill-opacity:1">
          <use
             id="use31539"
             y="138.2"
             x="240.23599"
             xlink:href="#textext-f9a59e65-6"
             width="744.09448"
             height="1052.3622" />
        </g>
      </g>
    </g>
    <g
       transform="matrix(9.2461705,0,0,9.2461705,-4109.9596,-973.02245)"
       ns0:text="$$P^-_i$$"
       ns0:preamble=""
       id="g31636"
       style="fill:#0000ff;fill-opacity:1">
      <defs
         id="defs31638">
        <g
           id="g31640">
          <symbol
             style="overflow:visible"
             overflow="visible"
             id="textext-fa62c804-0">
            <path
               inkscape:connector-curvature="0"
               style="stroke:none"
               d=""
               id="path31643" />
          </symbol>
          <symbol
             style="overflow:visible"
             overflow="visible"
             id="textext-fa62c804-1">
            <path
               inkscape:connector-curvature="0"
               style="stroke:none"
               d="m 3.015625,-3.15625 1.703125,0 c 1.40625,0 2.796875,-1.03125 2.796875,-2.140625 0,-0.78125 -0.65625,-1.515625 -1.96875,-1.515625 l -3.21875,0 c -0.1875,0 -0.296875,0 -0.296875,0.1875 0,0.125 0.078125,0.125 0.28125,0.125 0.125,0 0.3125,0.015625 0.421875,0.015625 0.171875,0.03125 0.21875,0.046875 0.21875,0.171875 0,0.03125 0,0.0625 -0.03125,0.1875 l -1.34375,5.34375 c -0.09375,0.390625 -0.109375,0.46875 -0.90625,0.46875 -0.15625,0 -0.265625,0 -0.265625,0.1875 C 0.40625,0 0.515625,0 0.546875,0 0.828125,0 1.53125,-0.03125 1.8125,-0.03125 c 0.21875,0 0.4375,0.015625 0.640625,0.015625 0.21875,0 0.4375,0.015625 0.640625,0.015625 0.078125,0 0.203125,0 0.203125,-0.203125 0,-0.109375 -0.09375,-0.109375 -0.28125,-0.109375 -0.359375,0 -0.640625,0 -0.640625,-0.171875 0,-0.0625 0.015625,-0.109375 0.03125,-0.171875 z M 3.734375,-6.125 C 3.828125,-6.46875 3.84375,-6.5 4.28125,-6.5 l 0.953125,0 c 0.828125,0 1.359375,0.265625 1.359375,0.953125 0,0.390625 -0.203125,1.25 -0.59375,1.609375 -0.5,0.453125 -1.09375,0.53125 -1.53125,0.53125 l -1.40625,0 z m 0,0"
               id="path31646" />
          </symbol>
          <symbol
             style="overflow:visible"
             overflow="visible"
             id="textext-fa62c804-2">
            <path
               inkscape:connector-curvature="0"
               style="stroke:none"
               d=""
               id="path31649" />
          </symbol>
          <symbol
             style="overflow:visible"
             overflow="visible"
             id="textext-fa62c804-3">
            <path
               inkscape:connector-curvature="0"
               style="stroke:none"
               d="m 5.1875,-1.578125 c 0.109375,0 0.28125,0 0.28125,-0.15625 0,-0.1875 -0.171875,-0.1875 -0.28125,-0.1875 l -4.15625,0 c -0.109375,0 -0.28125,0 -0.28125,0.171875 0,0.171875 0.15625,0.171875 0.28125,0.171875 z m 0,0"
               id="path31652" />
          </symbol>
          <symbol
             style="overflow:visible"
             overflow="visible"
             id="textext-fa62c804-4">
            <path
               inkscape:connector-curvature="0"
               style="stroke:none"
               d=""
               id="path31655" />
          </symbol>
          <symbol
             style="overflow:visible"
             overflow="visible"
             id="textext-fa62c804-5">
            <path
               inkscape:connector-curvature="0"
               style="stroke:none"
               d="m 2.265625,-4.359375 c 0,-0.109375 -0.09375,-0.265625 -0.28125,-0.265625 -0.1875,0 -0.390625,0.1875 -0.390625,0.390625 0,0.109375 0.078125,0.265625 0.28125,0.265625 0.1875,0 0.390625,-0.203125 0.390625,-0.390625 z M 0.84375,-0.8125 c -0.03125,0.09375 -0.0625,0.171875 -0.0625,0.296875 0,0.328125 0.265625,0.578125 0.65625,0.578125 0.6875,0 1,-0.953125 1,-1.0625 0,-0.09375 -0.09375,-0.09375 -0.109375,-0.09375 -0.09375,0 -0.109375,0.046875 -0.140625,0.125 -0.15625,0.5625 -0.453125,0.84375 -0.734375,0.84375 -0.140625,0 -0.171875,-0.09375 -0.171875,-0.25 0,-0.15625 0.046875,-0.28125 0.109375,-0.4375 C 1.46875,-1 1.546875,-1.1875 1.609375,-1.375 1.671875,-1.546875 1.9375,-2.171875 1.953125,-2.265625 1.984375,-2.328125 2,-2.40625 2,-2.484375 2,-2.8125 1.71875,-3.078125 1.34375,-3.078125 0.640625,-3.078125 0.328125,-2.125 0.328125,-2 c 0,0.078125 0.09375,0.078125 0.125,0.078125 0.09375,0 0.09375,-0.03125 0.125,-0.109375 C 0.75,-2.625 1.0625,-2.875 1.3125,-2.875 c 0.109375,0 0.171875,0.046875 0.171875,0.234375 0,0.171875 -0.03125,0.265625 -0.203125,0.703125 z m 0,0"
               id="path31658" />
          </symbol>
        </g>
      </defs>
      <g
         id="textext-fa62c804-6"
         style="fill:#0000ff;fill-opacity:1">
        <g
           style="fill:#0000ff;fill-opacity:1"
           id="g31661">
          <use
             height="1052.3622"
             width="744.09448"
             xlink:href="#textext-fa62c804-1"
             x="388.035"
             y="134.765"
             id="use31663"
             style="fill:#0000ff;fill-opacity:1" />
        </g>
        <g
           style="fill:#0000ff;fill-opacity:1"
           id="g31665">
          <use
             height="1052.3622"
             width="744.09448"
             xlink:href="#textext-fa62c804-3"
             x="395.815"
             y="130.50301"
             id="use31667"
             style="fill:#0000ff;fill-opacity:1" />
        </g>
        <g
           style="fill:#0000ff;fill-opacity:1"
           id="g31669">
          <use
             height="1052.3622"
             width="744.09448"
             xlink:href="#textext-fa62c804-5"
             x="394.431"
             y="137.54201"
             id="use31671"
             style="fill:#0000ff;fill-opacity:1" />
        </g>
      </g>
    </g>
    <g
       id="g31855"
       transform="matrix(9.2461705,0,0,9.2461705,-3919.9596,-973.02245)"
       ns0:preamble=""
       ns0:text="$$P^+_i$$"
       style="fill:#ff0000;fill-opacity:1">
      <defs
         id="defs31857">
        <g
           id="g31859">
          <symbol
             id="textext-871ee651-0"
             overflow="visible"
             style="overflow:visible">
            <path
               id="path31862"
               d=""
               style="stroke:none"
               inkscape:connector-curvature="0" />
          </symbol>
          <symbol
             id="textext-871ee651-1"
             overflow="visible"
             style="overflow:visible">
            <path
               id="path31865"
               d="m 3.015625,-3.15625 1.703125,0 c 1.40625,0 2.796875,-1.03125 2.796875,-2.140625 0,-0.78125 -0.65625,-1.515625 -1.96875,-1.515625 l -3.21875,0 c -0.1875,0 -0.296875,0 -0.296875,0.1875 0,0.125 0.078125,0.125 0.28125,0.125 0.125,0 0.3125,0.015625 0.421875,0.015625 0.171875,0.03125 0.21875,0.046875 0.21875,0.171875 0,0.03125 0,0.0625 -0.03125,0.1875 l -1.34375,5.34375 c -0.09375,0.390625 -0.109375,0.46875 -0.90625,0.46875 -0.15625,0 -0.265625,0 -0.265625,0.1875 C 0.40625,0 0.515625,0 0.546875,0 0.828125,0 1.53125,-0.03125 1.8125,-0.03125 c 0.21875,0 0.4375,0.015625 0.640625,0.015625 0.21875,0 0.4375,0.015625 0.640625,0.015625 0.078125,0 0.203125,0 0.203125,-0.203125 0,-0.109375 -0.09375,-0.109375 -0.28125,-0.109375 -0.359375,0 -0.640625,0 -0.640625,-0.171875 0,-0.0625 0.015625,-0.109375 0.03125,-0.171875 z M 3.734375,-6.125 C 3.828125,-6.46875 3.84375,-6.5 4.28125,-6.5 l 0.953125,0 c 0.828125,0 1.359375,0.265625 1.359375,0.953125 0,0.390625 -0.203125,1.25 -0.59375,1.609375 -0.5,0.453125 -1.09375,0.53125 -1.53125,0.53125 l -1.40625,0 z m 0,0"
               style="stroke:none"
               inkscape:connector-curvature="0" />
          </symbol>
          <symbol
             id="textext-871ee651-2"
             overflow="visible"
             style="overflow:visible">
            <path
               id="path31868"
               d=""
               style="stroke:none"
               inkscape:connector-curvature="0" />
          </symbol>
          <symbol
             id="textext-871ee651-3"
             overflow="visible"
             style="overflow:visible">
            <path
               id="path31871"
               d="m 3.21875,-1.578125 2.140625,0 c 0.09375,0 0.25,0 0.25,-0.15625 0,-0.1875 -0.15625,-0.1875 -0.25,-0.1875 l -2.140625,0 0,-2.140625 c 0,-0.078125 0,-0.25 -0.15625,-0.25 -0.171875,0 -0.171875,0.15625 -0.171875,0.25 l 0,2.140625 -2.140625,0 c -0.09375,0 -0.265625,0 -0.265625,0.171875 0,0.171875 0.15625,0.171875 0.265625,0.171875 l 2.140625,0 0,2.140625 c 0,0.09375 0,0.265625 0.15625,0.265625 0.171875,0 0.171875,-0.171875 0.171875,-0.265625 z m 0,0"
               style="stroke:none"
               inkscape:connector-curvature="0" />
          </symbol>
          <symbol
             id="textext-871ee651-4"
             overflow="visible"
             style="overflow:visible">
            <path
               id="path31874"
               d=""
               style="stroke:none"
               inkscape:connector-curvature="0" />
          </symbol>
          <symbol
             id="textext-871ee651-5"
             overflow="visible"
             style="overflow:visible">
            <path
               id="path31877"
               d="m 2.265625,-4.359375 c 0,-0.109375 -0.09375,-0.265625 -0.28125,-0.265625 -0.1875,0 -0.390625,0.1875 -0.390625,0.390625 0,0.109375 0.078125,0.265625 0.28125,0.265625 0.1875,0 0.390625,-0.203125 0.390625,-0.390625 z M 0.84375,-0.8125 c -0.03125,0.09375 -0.0625,0.171875 -0.0625,0.296875 0,0.328125 0.265625,0.578125 0.65625,0.578125 0.6875,0 1,-0.953125 1,-1.0625 0,-0.09375 -0.09375,-0.09375 -0.109375,-0.09375 -0.09375,0 -0.109375,0.046875 -0.140625,0.125 -0.15625,0.5625 -0.453125,0.84375 -0.734375,0.84375 -0.140625,0 -0.171875,-0.09375 -0.171875,-0.25 0,-0.15625 0.046875,-0.28125 0.109375,-0.4375 C 1.46875,-1 1.546875,-1.1875 1.609375,-1.375 1.671875,-1.546875 1.9375,-2.171875 1.953125,-2.265625 1.984375,-2.328125 2,-2.40625 2,-2.484375 2,-2.8125 1.71875,-3.078125 1.34375,-3.078125 0.640625,-3.078125 0.328125,-2.125 0.328125,-2 c 0,0.078125 0.09375,0.078125 0.125,0.078125 0.09375,0 0.09375,-0.03125 0.125,-0.109375 C 0.75,-2.625 1.0625,-2.875 1.3125,-2.875 c 0.109375,0 0.171875,0.046875 0.171875,0.234375 0,0.171875 -0.03125,0.265625 -0.203125,0.703125 z m 0,0"
               style="stroke:none"
               inkscape:connector-curvature="0" />
          </symbol>
        </g>
      </defs>
      <g
         id="textext-871ee651-6"
         style="fill:#ff0000;fill-opacity:1">
        <g
           id="g31880"
           style="fill:#ff0000;fill-opacity:1">
          <use
             id="use31882"
             y="134.765"
             x="388.091"
             xlink:href="#textext-871ee651-1"
             width="744.09448"
             height="1052.3622"
             style="fill:#ff0000;fill-opacity:1" />
        </g>
        <g
           id="g31884"
           style="fill:#ff0000;fill-opacity:1">
          <use
             id="use31886"
             y="130.50301"
             x="395.871"
             xlink:href="#textext-871ee651-3"
             width="744.09448"
             height="1052.3622"
             style="fill:#ff0000;fill-opacity:1" />
        </g>
        <g
           id="g31888"
           style="fill:#ff0000;fill-opacity:1">
          <use
             id="use31890"
             y="137.54201"
             x="394.487"
             xlink:href="#textext-871ee651-5"
             width="744.09448"
             height="1052.3622"
             style="fill:#ff0000;fill-opacity:1" />
        </g>
      </g>
    </g>
    <g
       ns0:text="$$P^-_{i+1}$$"
       ns0:preamble=""
       transform="matrix(9.2461705,0,0,9.2461705,-3539.9596,-972.45102)"
       id="g32188"
       style="fill:#0000ff;fill-opacity:1">
      <defs
         id="defs32190">
        <g
           id="g32192">
          <symbol
             overflow="visible"
             id="textext-b9e83d98-0"
             style="overflow:visible">
            <path
               style="stroke:none"
               d=""
               id="path32195"
               inkscape:connector-curvature="0" />
          </symbol>
          <symbol
             overflow="visible"
             id="textext-b9e83d98-1"
             style="overflow:visible">
            <path
               style="stroke:none"
               d="m 3.015625,-3.15625 1.703125,0 c 1.40625,0 2.796875,-1.03125 2.796875,-2.140625 0,-0.78125 -0.65625,-1.515625 -1.96875,-1.515625 l -3.21875,0 c -0.1875,0 -0.296875,0 -0.296875,0.1875 0,0.125 0.078125,0.125 0.28125,0.125 0.125,0 0.3125,0.015625 0.421875,0.015625 0.171875,0.03125 0.21875,0.046875 0.21875,0.171875 0,0.03125 0,0.0625 -0.03125,0.1875 l -1.34375,5.34375 c -0.09375,0.390625 -0.109375,0.46875 -0.90625,0.46875 -0.15625,0 -0.265625,0 -0.265625,0.1875 C 0.40625,0 0.515625,0 0.546875,0 0.828125,0 1.53125,-0.03125 1.8125,-0.03125 c 0.21875,0 0.4375,0.015625 0.640625,0.015625 0.21875,0 0.4375,0.015625 0.640625,0.015625 0.078125,0 0.203125,0 0.203125,-0.203125 0,-0.109375 -0.09375,-0.109375 -0.28125,-0.109375 -0.359375,0 -0.640625,0 -0.640625,-0.171875 0,-0.0625 0.015625,-0.109375 0.03125,-0.171875 z M 3.734375,-6.125 C 3.828125,-6.46875 3.84375,-6.5 4.28125,-6.5 l 0.953125,0 c 0.828125,0 1.359375,0.265625 1.359375,0.953125 0,0.390625 -0.203125,1.25 -0.59375,1.609375 -0.5,0.453125 -1.09375,0.53125 -1.53125,0.53125 l -1.40625,0 z m 0,0"
               id="path32198"
               inkscape:connector-curvature="0" />
          </symbol>
          <symbol
             overflow="visible"
             id="textext-b9e83d98-2"
             style="overflow:visible">
            <path
               style="stroke:none"
               d=""
               id="path32201"
               inkscape:connector-curvature="0" />
          </symbol>
          <symbol
             overflow="visible"
             id="textext-b9e83d98-3"
             style="overflow:visible">
            <path
               style="stroke:none"
               d="m 5.1875,-1.578125 c 0.109375,0 0.28125,0 0.28125,-0.15625 0,-0.1875 -0.171875,-0.1875 -0.28125,-0.1875 l -4.15625,0 c -0.109375,0 -0.28125,0 -0.28125,0.171875 0,0.171875 0.15625,0.171875 0.28125,0.171875 z m 0,0"
               id="path32204"
               inkscape:connector-curvature="0" />
          </symbol>
          <symbol
             overflow="visible"
             id="textext-b9e83d98-4"
             style="overflow:visible">
            <path
               style="stroke:none"
               d=""
               id="path32207"
               inkscape:connector-curvature="0" />
          </symbol>
          <symbol
             overflow="visible"
             id="textext-b9e83d98-5"
             style="overflow:visible">
            <path
               style="stroke:none"
               d="m 2.265625,-4.359375 c 0,-0.109375 -0.09375,-0.265625 -0.28125,-0.265625 -0.1875,0 -0.390625,0.1875 -0.390625,0.390625 0,0.109375 0.078125,0.265625 0.28125,0.265625 0.1875,0 0.390625,-0.203125 0.390625,-0.390625 z M 0.84375,-0.8125 c -0.03125,0.09375 -0.0625,0.171875 -0.0625,0.296875 0,0.328125 0.265625,0.578125 0.65625,0.578125 0.6875,0 1,-0.953125 1,-1.0625 0,-0.09375 -0.09375,-0.09375 -0.109375,-0.09375 -0.09375,0 -0.109375,0.046875 -0.140625,0.125 -0.15625,0.5625 -0.453125,0.84375 -0.734375,0.84375 -0.140625,0 -0.171875,-0.09375 -0.171875,-0.25 0,-0.15625 0.046875,-0.28125 0.109375,-0.4375 C 1.46875,-1 1.546875,-1.1875 1.609375,-1.375 1.671875,-1.546875 1.9375,-2.171875 1.953125,-2.265625 1.984375,-2.328125 2,-2.40625 2,-2.484375 2,-2.8125 1.71875,-3.078125 1.34375,-3.078125 0.640625,-3.078125 0.328125,-2.125 0.328125,-2 c 0,0.078125 0.09375,0.078125 0.125,0.078125 0.09375,0 0.09375,-0.03125 0.125,-0.109375 C 0.75,-2.625 1.0625,-2.875 1.3125,-2.875 c 0.109375,0 0.171875,0.046875 0.171875,0.234375 0,0.171875 -0.03125,0.265625 -0.203125,0.703125 z m 0,0"
               id="path32210"
               inkscape:connector-curvature="0" />
          </symbol>
          <symbol
             overflow="visible"
             id="textext-b9e83d98-6"
             style="overflow:visible">
            <path
               style="stroke:none"
               d=""
               id="path32213"
               inkscape:connector-curvature="0" />
          </symbol>
          <symbol
             overflow="visible"
             id="textext-b9e83d98-7"
             style="overflow:visible">
            <path
               style="stroke:none"
               d="m 3.21875,-1.578125 2.140625,0 c 0.09375,0 0.25,0 0.25,-0.15625 0,-0.1875 -0.15625,-0.1875 -0.25,-0.1875 l -2.140625,0 0,-2.140625 c 0,-0.078125 0,-0.25 -0.15625,-0.25 -0.171875,0 -0.171875,0.15625 -0.171875,0.25 l 0,2.140625 -2.140625,0 c -0.09375,0 -0.265625,0 -0.265625,0.171875 0,0.171875 0.15625,0.171875 0.265625,0.171875 l 2.140625,0 0,2.140625 c 0,0.09375 0,0.265625 0.15625,0.265625 0.171875,0 0.171875,-0.171875 0.171875,-0.265625 z m 0,0"
               id="path32216"
               inkscape:connector-curvature="0" />
          </symbol>
          <symbol
             overflow="visible"
             id="textext-b9e83d98-8"
             style="overflow:visible">
            <path
               style="stroke:none"
               d="m 2.328125,-4.4375 c 0,-0.1875 0,-0.1875 -0.203125,-0.1875 -0.453125,0.4375 -1.078125,0.4375 -1.359375,0.4375 l 0,0.25 c 0.15625,0 0.625,0 1,-0.1875 l 0,3.546875 c 0,0.234375 0,0.328125 -0.6875,0.328125 l -0.265625,0 0,0.25 c 0.125,0 0.984375,-0.03125 1.234375,-0.03125 0.21875,0 1.09375,0.03125 1.25,0.03125 l 0,-0.25 -0.265625,0 c -0.703125,0 -0.703125,-0.09375 -0.703125,-0.328125 z m 0,0"
               id="path32219"
               inkscape:connector-curvature="0" />
          </symbol>
        </g>
      </defs>
      <g
         id="textext-b9e83d98-9"
         style="fill:#0000ff;fill-opacity:1">
        <g
           style="fill:#0000ff;fill-opacity:1"
           id="g32222">
          <use
             xlink:href="#textext-b9e83d98-1"
             x="385.388"
             y="134.765"
             id="use32224"
             width="744.09448"
             height="1052.3622"
             style="fill:#0000ff;fill-opacity:1" />
        </g>
        <g
           style="fill:#0000ff;fill-opacity:1"
           id="g32226">
          <use
             xlink:href="#textext-b9e83d98-3"
             x="393.16699"
             y="130.50301"
             id="use32228"
             width="744.09448"
             height="1052.3622"
             style="fill:#0000ff;fill-opacity:1" />
        </g>
        <g
           style="fill:#0000ff;fill-opacity:1"
           id="g32230">
          <use
             xlink:href="#textext-b9e83d98-5"
             x="391.784"
             y="137.54201"
             id="use32232"
             width="744.09448"
             height="1052.3622"
             style="fill:#0000ff;fill-opacity:1" />
        </g>
        <g
           style="fill:#0000ff;fill-opacity:1"
           id="g32234">
          <use
             xlink:href="#textext-b9e83d98-7"
             x="394.60199"
             y="137.54201"
             id="use32236"
             width="744.09448"
             height="1052.3622"
             style="fill:#0000ff;fill-opacity:1" />
          <use
             xlink:href="#textext-b9e83d98-8"
             x="400.71802"
             y="137.54201"
             id="use32238"
             width="744.09448"
             height="1052.3622"
             style="fill:#0000ff;fill-opacity:1" />
        </g>
      </g>
    </g>
    <g
       id="g32506"
       transform="matrix(9.2461705,0,0,9.2461705,-3297.9596,-972.45102)"
       ns0:preamble=""
       ns0:text="$$P^+_{i+1}$$"
       style="fill:#ff0000;fill-opacity:1">
      <defs
         id="defs32508">
        <g
           id="g32510">
          <symbol
             id="textext-07766b2a-0"
             overflow="visible"
             style="overflow:visible">
            <path
               id="path32513"
               d=""
               style="stroke:none"
               inkscape:connector-curvature="0" />
          </symbol>
          <symbol
             id="textext-07766b2a-1"
             overflow="visible"
             style="overflow:visible">
            <path
               id="path32516"
               d="m 3.015625,-3.15625 1.703125,0 c 1.40625,0 2.796875,-1.03125 2.796875,-2.140625 0,-0.78125 -0.65625,-1.515625 -1.96875,-1.515625 l -3.21875,0 c -0.1875,0 -0.296875,0 -0.296875,0.1875 0,0.125 0.078125,0.125 0.28125,0.125 0.125,0 0.3125,0.015625 0.421875,0.015625 0.171875,0.03125 0.21875,0.046875 0.21875,0.171875 0,0.03125 0,0.0625 -0.03125,0.1875 l -1.34375,5.34375 c -0.09375,0.390625 -0.109375,0.46875 -0.90625,0.46875 -0.15625,0 -0.265625,0 -0.265625,0.1875 C 0.40625,0 0.515625,0 0.546875,0 0.828125,0 1.53125,-0.03125 1.8125,-0.03125 c 0.21875,0 0.4375,0.015625 0.640625,0.015625 0.21875,0 0.4375,0.015625 0.640625,0.015625 0.078125,0 0.203125,0 0.203125,-0.203125 0,-0.109375 -0.09375,-0.109375 -0.28125,-0.109375 -0.359375,0 -0.640625,0 -0.640625,-0.171875 0,-0.0625 0.015625,-0.109375 0.03125,-0.171875 z M 3.734375,-6.125 C 3.828125,-6.46875 3.84375,-6.5 4.28125,-6.5 l 0.953125,0 c 0.828125,0 1.359375,0.265625 1.359375,0.953125 0,0.390625 -0.203125,1.25 -0.59375,1.609375 -0.5,0.453125 -1.09375,0.53125 -1.53125,0.53125 l -1.40625,0 z m 0,0"
               style="stroke:none"
               inkscape:connector-curvature="0" />
          </symbol>
          <symbol
             id="textext-07766b2a-2"
             overflow="visible"
             style="overflow:visible">
            <path
               id="path32519"
               d=""
               style="stroke:none"
               inkscape:connector-curvature="0" />
          </symbol>
          <symbol
             id="textext-07766b2a-3"
             overflow="visible"
             style="overflow:visible">
            <path
               id="path32522"
               d="m 3.21875,-1.578125 2.140625,0 c 0.09375,0 0.25,0 0.25,-0.15625 0,-0.1875 -0.15625,-0.1875 -0.25,-0.1875 l -2.140625,0 0,-2.140625 c 0,-0.078125 0,-0.25 -0.15625,-0.25 -0.171875,0 -0.171875,0.15625 -0.171875,0.25 l 0,2.140625 -2.140625,0 c -0.09375,0 -0.265625,0 -0.265625,0.171875 0,0.171875 0.15625,0.171875 0.265625,0.171875 l 2.140625,0 0,2.140625 c 0,0.09375 0,0.265625 0.15625,0.265625 0.171875,0 0.171875,-0.171875 0.171875,-0.265625 z m 0,0"
               style="stroke:none"
               inkscape:connector-curvature="0" />
          </symbol>
          <symbol
             id="textext-07766b2a-4"
             overflow="visible"
             style="overflow:visible">
            <path
               id="path32525"
               d="m 2.328125,-4.4375 c 0,-0.1875 0,-0.1875 -0.203125,-0.1875 -0.453125,0.4375 -1.078125,0.4375 -1.359375,0.4375 l 0,0.25 c 0.15625,0 0.625,0 1,-0.1875 l 0,3.546875 c 0,0.234375 0,0.328125 -0.6875,0.328125 l -0.265625,0 0,0.25 c 0.125,0 0.984375,-0.03125 1.234375,-0.03125 0.21875,0 1.09375,0.03125 1.25,0.03125 l 0,-0.25 -0.265625,0 c -0.703125,0 -0.703125,-0.09375 -0.703125,-0.328125 z m 0,0"
               style="stroke:none"
               inkscape:connector-curvature="0" />
          </symbol>
          <symbol
             id="textext-07766b2a-5"
             overflow="visible"
             style="overflow:visible">
            <path
               id="path32528"
               d=""
               style="stroke:none"
               inkscape:connector-curvature="0" />
          </symbol>
          <symbol
             id="textext-07766b2a-6"
             overflow="visible"
             style="overflow:visible">
            <path
               id="path32531"
               d="m 2.265625,-4.359375 c 0,-0.109375 -0.09375,-0.265625 -0.28125,-0.265625 -0.1875,0 -0.390625,0.1875 -0.390625,0.390625 0,0.109375 0.078125,0.265625 0.28125,0.265625 0.1875,0 0.390625,-0.203125 0.390625,-0.390625 z M 0.84375,-0.8125 c -0.03125,0.09375 -0.0625,0.171875 -0.0625,0.296875 0,0.328125 0.265625,0.578125 0.65625,0.578125 0.6875,0 1,-0.953125 1,-1.0625 0,-0.09375 -0.09375,-0.09375 -0.109375,-0.09375 -0.09375,0 -0.109375,0.046875 -0.140625,0.125 -0.15625,0.5625 -0.453125,0.84375 -0.734375,0.84375 -0.140625,0 -0.171875,-0.09375 -0.171875,-0.25 0,-0.15625 0.046875,-0.28125 0.109375,-0.4375 C 1.46875,-1 1.546875,-1.1875 1.609375,-1.375 1.671875,-1.546875 1.9375,-2.171875 1.953125,-2.265625 1.984375,-2.328125 2,-2.40625 2,-2.484375 2,-2.8125 1.71875,-3.078125 1.34375,-3.078125 0.640625,-3.078125 0.328125,-2.125 0.328125,-2 c 0,0.078125 0.09375,0.078125 0.125,0.078125 0.09375,0 0.09375,-0.03125 0.125,-0.109375 C 0.75,-2.625 1.0625,-2.875 1.3125,-2.875 c 0.109375,0 0.171875,0.046875 0.171875,0.234375 0,0.171875 -0.03125,0.265625 -0.203125,0.703125 z m 0,0"
               style="stroke:none"
               inkscape:connector-curvature="0" />
          </symbol>
        </g>
      </defs>
      <g
         id="textext-07766b2a-7"
         style="fill:#ff0000;fill-opacity:1">
        <g
           id="g32534"
           style="fill:#ff0000;fill-opacity:1">
          <use
             id="use32536"
             y="134.765"
             x="385.388"
             xlink:href="#textext-07766b2a-1"
             width="744.09448"
             height="1052.3622"
             style="fill:#ff0000;fill-opacity:1" />
        </g>
        <g
           id="g32538"
           style="fill:#ff0000;fill-opacity:1">
          <use
             id="use32540"
             y="130.50301"
             x="393.16699"
             xlink:href="#textext-07766b2a-3"
             width="744.09448"
             height="1052.3622"
             style="fill:#ff0000;fill-opacity:1" />
        </g>
        <g
           id="g32542"
           style="fill:#ff0000;fill-opacity:1">
          <use
             id="use32544"
             y="137.54201"
             x="391.784"
             xlink:href="#textext-07766b2a-6"
             width="744.09448"
             height="1052.3622"
             style="fill:#ff0000;fill-opacity:1" />
        </g>
        <g
           id="g32546"
           style="fill:#ff0000;fill-opacity:1">
          <use
             id="use32548"
             y="137.54201"
             x="394.60199"
             xlink:href="#textext-07766b2a-3"
             width="744.09448"
             height="1052.3622"
             style="fill:#ff0000;fill-opacity:1" />
          <use
             id="use32550"
             y="137.54201"
             x="400.71802"
             xlink:href="#textext-07766b2a-4"
             width="744.09448"
             height="1052.3622"
             style="fill:#ff0000;fill-opacity:1" />
        </g>
      </g>
    </g>
  </g>
</svg>
